<?xml version="1.0" standalone="no"?>
<!DOCTYPE svg PUBLIC "-//W3C//DTD SVG 1.1//EN" "http://www.w3.org/Graphics/SVG/1.1/DTD/svg11.dtd" >
<svg xmlns="http://www.w3.org/2000/svg" width="100%" height="100%">
<metadata>
Created by FontXChange 20110222 at Mon May 11 14:55:54 2015
 By James Beall
(c) 1998 Gareth Hague
</metadata>
<defs>
<font id="Harbour-Light" horiz-adv-x="550" >
  <font-face 
    font-family="Harbour"
    font-weight="300"
    font-stretch="normal"
    units-per-em="1000"
    panose-1="0 0 0 0 0 0 0 0 0 0"
    ascent="800"
    descent="-200"
    x-height="510"
    cap-height="800"
    bbox="-105 -360 1148 1055"
    underline-thickness="20"
    underline-position="-113"
    unicode-range="U+0020-FB02"
  />
<missing-glyph horiz-adv-x="250" 
 />
    <glyph glyph-name=".notdef" horiz-adv-x="250" 
 />
    <glyph glyph-name="eth" unicode="&#xf0;" horiz-adv-x="608" 
d="M563 362c0 -193 -89 -375 -266 -375c-142 0 -228 112 -228 247s86 247 228 247c54 0 99 -16 135 -44c-14 64 -39 119 -74 165l-152 -87v134l62 35c-58 37 -130 60 -218 67c50 40 111 62 176 62c224 0 337 -233 337 -451zM428 167c0 147 -102 235 -245 235
c-11 -33 -17 -67 -17 -102c0 -146 102 -234 245 -234c11 33 17 67 17 101z" />
    <glyph glyph-name="Lslash" unicode="&#x141;" horiz-adv-x="538" 
d="M498 134v-134h-458l65 82v197l-95 -55v134l95 55v305l-65 82h251l-65 -82v-235l93 54v-134l-93 -54v-305z" />
    <glyph glyph-name="lslash" unicode="&#x142;" horiz-adv-x="359" 
d="M324 537v-134l-93 -54v-267l65 -82h-251l65 82v197l-95 -55v134l95 55v278l-52 55l173 149v-412z" />
    <glyph glyph-name="Scaron" unicode="&#x160;" horiz-adv-x="557" 
d="M512 205c0 -130 -105 -226 -230 -226c-86 0 -179 24 -252 72l107 91l202 -116c42 44 60 84 60 125c0 196 -314 245 -314 443c0 153 97 220 209 220c68 0 143 -25 206 -70l-98 -86l-189 105c-21 -37 -31 -72 -31 -103c0 -188 330 -229 330 -455zM404 1030l30 -55l-148 -82
l-148 82l30 55l118 -65z" />
    <glyph glyph-name="scaron" unicode="&#x161;" horiz-adv-x="480" 
d="M425 145c0 -101 -88 -162 -182 -162c-78 0 -151 33 -213 78l90 79l189 -107s15 22 15 61c0 66 -79 98 -149 141c-55 35 -106 79 -106 155c0 91 77 158 165 158c79 0 127 -21 189 -67l-93 -82l-159 95s-16 -17 -16 -58c0 -55 66 -88 131 -125c69 -39 139 -83 139 -166z
M355 837l30 -55l-148 -82l-148 82l30 55l118 -65z" />
    <glyph glyph-name="Yacute" unicode="&#xdd;" horiz-adv-x="642" 
d="M446 800h181l-244 -455v-263l64 -82h-250l65 82v247l-189 351l-68 53l116 102l226 -420l163 303zM447 1055l27 -57l-238 -111l-26 57z" />
    <glyph glyph-name="yacute" unicode="&#xfd;" horiz-adv-x="586" 
d="M375 510h186l-257 -713l78 -96h-186l74 203l-178 482l-67 57l130 112l178 -476l120 335zM382 837l27 -57l-238 -111l-26 57z" />
    <glyph glyph-name="Thorn" unicode="&#xde;" horiz-adv-x="587" 
d="M532 363c0 -178 -110 -248 -242 -248c-21 0 -43 2 -64 5v-38l65 -82h-251l65 82v636l-65 82h251l-65 -82v-145l117 101c112 -72 189 -190 189 -311zM440 285c0 127 -62 240 -214 261v-301l202 -59c8 33 12 67 12 99z" />
    <glyph glyph-name="thorn" unicode="&#xfe;" horiz-adv-x="579" 
d="M524 236c0 -178 -110 -248 -242 -248c-21 0 -43 2 -64 5v-149l53 -55l-174 -149v1051l-52 55l173 149v-449l117 101c112 -72 189 -190 189 -311zM432 158c0 127 -62 240 -214 261v-301l202 -59c8 33 12 67 12 99z" />
    <glyph glyph-name="Zcaron" unicode="&#x17d;" horiz-adv-x="531" 
d="M52 800h454l-330 -758l304 91v-133h-455l333 763l-306 -96v133zM409 1030l30 -55l-148 -82l-148 82l30 55l118 -65z" />
    <glyph glyph-name="zcaron" unicode="&#x17e;" horiz-adv-x="507" 
d="M73 510h384l-254 -476l247 91v-125h-400l254 476l-231 -98v132zM394 837l30 -55l-148 -82l-148 82l30 55l118 -65z" />
    <glyph glyph-name="onehalf" unicode="&#xbd;" horiz-adv-x="756" 
d="M701 359c0 -31 -13 -69 -29 -95l-144 -235l161 52v-81h-262l130 208l-20 12c-68 41 -97 91 -97 146c0 66 51 122 130 122c74 0 131 -55 131 -129zM532 813l51 -37l-441 -789l-50 37zM189 384l39 -49h-151l39 49v338l-57 -48l-24 32l154 131v-453zM593 265l67 110l-148 79
c-14 -22 -17 -46 -17 -67c0 -50 35 -85 79 -111z" />
    <glyph glyph-name="onequarter" unicode="&#xbc;" horiz-adv-x="687" 
d="M662 166v-40h-55v-77l39 -49h-151l39 49v77h-177l140 375l70 -60l-32 -30l-92 -245h91v72h73v-72h55zM532 813l51 -37l-441 -789l-50 37zM189 384l39 -49h-151l39 49v338l-57 -48l-24 32l154 131v-453z" />
    <glyph glyph-name="onesuperior" unicode="&#xb9;" horiz-adv-x="268" 
d="M189 384l39 -49h-151l39 49v338l-57 -48l-24 32l154 131v-453z" />
    <glyph glyph-name="threequarters" unicode="&#xbe;" horiz-adv-x="743" 
d="M718 166v-40h-55v-77l39 -49h-151l39 49v77h-177l140 375l70 -60l-32 -30l-92 -245h91v72h73v-72h55zM588 813l51 -37l-441 -789l-50 37zM296 451c0 -74 -53 -139 -143 -139c-41 0 -84 14 -118 41l55 52l127 -50c11 22 15 41 15 60c0 80 -68 140 -135 164l107 199
l-146 -60v82h231l-101 -188c59 -35 108 -87 108 -161z" />
    <glyph glyph-name="threesuperior" unicode="&#xb3;" horiz-adv-x="356" 
d="M296 451c0 -74 -53 -139 -143 -139c-41 0 -84 14 -118 41l55 52l127 -50c11 22 15 41 15 60c0 80 -68 140 -135 164l107 199l-146 -60v82h231l-101 -188c59 -35 108 -87 108 -161z" />
    <glyph glyph-name="twosuperior" unicode="&#xb2;" horiz-adv-x="354" 
d="M299 694c0 -31 -13 -68 -29 -95l-144 -235l161 52v-81h-262l130 208l-20 12c-68 41 -97 91 -97 146c0 66 51 122 130 122c74 0 131 -55 131 -129zM191 600l67 110l-148 79c-14 -22 -17 -46 -17 -67c0 -50 35 -85 79 -111z" />
    <glyph glyph-name="brokenbar" unicode="&#xa6;" horiz-adv-x="226" 
d="M146 800v-464l-66 -55v519h66zM146 221v-520h-66v463z" />
    <glyph glyph-name="minus" unicode="&#x2212;" horiz-adv-x="548" 
d="M478 367v-66h-408v66h408z" />
    <glyph glyph-name="multiply" unicode="&#xd7;" horiz-adv-x="475" 
d="M284 334l121 -121l-46 -47l-121 121l-121 -121l-47 47l121 121l-121 121l47 47l121 -121l121 121l46 -47z" />
    <glyph glyph-name="space" unicode=" " horiz-adv-x="250" 
 />
    <glyph glyph-name="exclam" unicode="!" horiz-adv-x="281" 
d="M201 800v-584h-121v584h121zM201 121v-121h-121v121h121z" />
    <glyph glyph-name="quotedbl" unicode="&#x22;" horiz-adv-x="365" 
d="M285 800v-252h-66v252h66zM146 800v-252h-66v252h66z" />
    <glyph glyph-name="numbersign" unicode="#" horiz-adv-x="622" 
d="M572 398v-65h-122l-20 -119h109v-65h-121l-16 -95l-78 -67l28 162h-125l-16 -95l-78 -67l28 162h-111v65h123l20 119h-111v65h123l17 94l78 68l-29 -162h125l17 94l78 68l-29 -162h110zM364 214l20 119h-125l-20 -119h125z" />
    <glyph glyph-name="dollar" unicode="$" horiz-adv-x="567" 
d="M517 205c0 -115 -83 -204 -189 -222v-193h-66v190c-79 4 -161 28 -227 71l107 91l202 -116c42 44 60 84 60 125c0 196 -314 245 -314 443c0 136 76 204 172 217v189h66v-187c60 -6 123 -30 177 -69l-98 -86l-189 105c-21 -37 -31 -72 -31 -103c0 -188 330 -229 330 -455z
" />
    <glyph glyph-name="percent" unicode="%" horiz-adv-x="817" 
d="M371 603c0 -116 -72 -210 -160 -210c-89 0 -161 94 -161 211c0 116 72 209 161 209c88 0 160 -93 160 -210zM603 813l51 -37l-441 -789l-50 37zM767 197c0 -116 -72 -210 -160 -210c-89 0 -161 94 -161 210c0 117 72 210 161 210c88 0 160 -93 160 -210zM299 555
c0 100 -48 193 -161 195c-11 -31 -16 -67 -16 -102c0 -99 47 -189 161 -192c10 31 16 65 16 99zM695 149c0 100 -48 193 -161 195c-11 -31 -16 -67 -16 -102c0 -99 47 -189 161 -192c10 31 16 65 16 99z" />
    <glyph glyph-name="ampersand" unicode="&#x26;" horiz-adv-x="668" 
d="M574 137l74 -54l-115 -99l-51 59c-41 -35 -104 -56 -164 -56c-156 0 -258 109 -258 230c0 68 33 141 107 199l-12 14c-47 55 -69 119 -69 178c0 110 77 205 223 205c66 0 138 -26 198 -69l-98 -86l-189 105c-21 -37 -31 -71 -31 -104c0 -47 21 -91 60 -137zM447 84
l-248 294c-18 -31 -27 -63 -27 -95c0 -108 100 -210 206 -210c22 0 47 1 69 11z" />
    <glyph glyph-name="quotesingle" unicode="'" horiz-adv-x="226" 
d="M146 800v-252h-66v252h66z" />
    <glyph glyph-name="parenleft" unicode="(" horiz-adv-x="374" 
d="M324 -53l-49 -46c-129 148 -205 298 -205 500s76 352 205 500l49 -45c-117 -135 -188 -266 -188 -455c0 -187 71 -321 188 -454z" />
    <glyph glyph-name="parenright" unicode=")" horiz-adv-x="374" 
d="M304 401c0 -202 -76 -352 -205 -500l-49 46c117 133 188 267 188 454c0 189 -71 320 -188 455l49 45c129 -148 205 -298 205 -500z" />
    <glyph glyph-name="asterisk" unicode="*" horiz-adv-x="587" 
d="M491 710l46 -141l-232 -5l185 -140l-120 -88l-76 220l-76 -220l-121 88l186 140l-233 5l46 141l191 -133l-68 223h149l-68 -223z" />
    <glyph glyph-name="plus" unicode="+" horiz-adv-x="548" 
d="M478 367v-66h-171v-171h-66v171h-171v66h171v171h66v-171h171z" />
    <glyph glyph-name="comma" unicode="," horiz-adv-x="228" 
d="M135 158l93 -76l-124 -214l-94 77z" />
    <glyph glyph-name="hyphen" unicode="-" horiz-adv-x="422" 
d="M342 480v-129l-262 -167v129z" />
    <glyph glyph-name="period" unicode="." horiz-adv-x="241" 
d="M181 121v-121h-121v121h121z" />
    <glyph glyph-name="slash" unicode="/" horiz-adv-x="518" 
d="M465 813l53 -39l-445 -814l-53 39z" />
    <glyph glyph-name="zero" unicode="0" horiz-adv-x="732" 
d="M672 400c0 -233 -141 -413 -306 -413s-306 180 -306 413s141 413 306 413s306 -180 306 -413zM556 331c0 193 -76 384 -281 384c-19 0 -38 -2 -59 -5c-25 -70 -40 -156 -40 -241c0 -193 76 -384 281 -384c19 0 38 2 59 5c25 70 40 156 40 241z" />
    <glyph glyph-name="one" unicode="1" horiz-adv-x="396" 
d="M291 82l65 -82h-251l65 82v564l-95 -81l-40 53l256 219v-755z" />
    <glyph glyph-name="two" unicode="2" horiz-adv-x="537" 
d="M482 598c0 -51 -21 -114 -48 -158l-241 -392l269 87v-135h-437l217 347l-33 19c-115 66 -163 152 -163 244c0 110 86 203 217 203c124 0 219 -91 219 -215zM301 442l113 182l-247 133c-24 -37 -29 -78 -29 -113c0 -82 57 -144 132 -185z" />
    <glyph glyph-name="three" unicode="3" horiz-adv-x="530" 
d="M470 219c0 -124 -89 -232 -239 -232c-68 0 -139 23 -196 67l92 88l211 -84c18 35 26 69 26 101c0 132 -114 232 -225 273l177 331l-243 -99v136h385l-168 -314c99 -58 180 -145 180 -267z" />
    <glyph glyph-name="four" unicode="4" horiz-adv-x="569" 
d="M544 277v-66h-93v-129l66 -82h-252l65 82v129h-295l234 624l116 -99l-53 -49l-153 -410h151v121h121v-121h93z" />
    <glyph glyph-name="five" unicode="5" horiz-adv-x="548" 
d="M488 212c0 -118 -84 -225 -237 -225c-68 0 -139 23 -196 67l92 88l211 -85c18 36 26 76 26 108c0 146 -161 256 -296 285v350h361v-133l-240 94v-231c191 -66 279 -198 279 -318z" />
    <glyph glyph-name="six" unicode="6" horiz-adv-x="591" 
d="M531 223c0 -131 -105 -236 -236 -236c-136 0 -235 109 -235 243c0 43 10 89 27 128l203 479l123 -106l-67 -57l-68 -162l56 -26c107 -50 197 -138 197 -263zM429 182c0 85 -47 150 -148 198l-49 23l-93 -218l261 -130c21 52 29 89 29 127z" />
    <glyph glyph-name="seven" unicode="7" horiz-adv-x="498" 
d="M40 800h433l-229 -718l65 -82h-249l66 82l214 680l-300 -98v136z" />
    <glyph glyph-name="eight" unicode="8" horiz-adv-x="613" 
d="M553 209c0 -120 -108 -222 -247 -222c-138 0 -246 102 -246 223c0 111 68 167 113 206c-65 55 -93 109 -93 178c0 119 103 219 230 219c129 0 231 -100 231 -219c0 -75 -46 -149 -103 -195c77 -54 115 -113 115 -190zM431 551c0 102 -90 178 -225 187
c-15 -36 -17 -56 -17 -86c0 -90 65 -147 142 -193l58 -35c29 45 42 88 42 127zM443 125c0 112 -76 173 -159 223l-69 42c-31 -42 -44 -81 -44 -119c0 -116 122 -205 263 -205c6 23 9 39 9 59z" />
    <glyph glyph-name="nine" unicode="9" horiz-adv-x="591" 
d="M531 570c0 -43 -10 -89 -27 -128l-203 -479l-123 106l67 57l68 162l-56 26c-107 50 -197 138 -197 263c0 131 105 236 236 236c136 0 235 -109 235 -243zM359 397l93 218l-261 130c-21 -52 -29 -89 -29 -127c0 -85 47 -151 148 -198z" />
    <glyph glyph-name="colon" unicode=":" horiz-adv-x="241" 
d="M181 510v-121h-121v121h121zM181 121v-121h-121v121h121z" />
    <glyph glyph-name="semicolon" unicode=";" horiz-adv-x="238" 
d="M215 510v-121h-121v121h121zM135 158l93 -76l-124 -214l-94 77z" />
    <glyph glyph-name="less" unicode="&#x3c;" horiz-adv-x="375" 
d="M143 344l182 -182l-47 -46l-228 228l228 228l47 -47z" />
    <glyph glyph-name="equal" unicode="=" horiz-adv-x="472" 
d="M402 448v-66h-332v66h332zM402 307v-66h-332v66h332z" />
    <glyph glyph-name="greater" unicode="&#x3e;" horiz-adv-x="375" 
d="M97 572l228 -228l-228 -228l-47 47l182 181l-182 182z" />
    <glyph glyph-name="question" unicode="?" horiz-adv-x="551" 
d="M501 588c0 -51 -21 -105 -48 -148l-156 -251l-111 97l70 60l-33 20c-114 69 -163 152 -163 244c0 110 86 203 216 203c125 0 225 -101 225 -225zM327 121v-121h-121v121h121zM315 442l113 182l-247 133c-24 -37 -30 -78 -30 -113c0 -82 58 -144 133 -185z" />
    <glyph glyph-name="at" unicode="@" horiz-adv-x="729" 
d="M689 399c0 -265 -184 -406 -356 -406c-175 0 -278 153 -278 293c0 119 74 229 240 229c64 0 130 -16 181 -44v-306l-97 -84c16 -3 32 -4 49 -4c22 0 44 2 66 6c56 93 83 191 83 278c0 200 -145 364 -416 398c49 34 106 53 167 53c186 0 361 -177 361 -413zM356 85v300
l-203 59c-8 -31 -12 -61 -12 -90c0 -154 94 -244 215 -269z" />
    <glyph glyph-name="A" unicode="A" horiz-adv-x="762" 
d="M687 82l65 -82h-254l65 82l-60 152h-295l-64 -152l65 -82h-199l65 82l307 738zM237 303h238l-116 291z" />
    <glyph glyph-name="B" unicode="B" horiz-adv-x="649" 
d="M599 213c0 -118 -96 -213 -213 -213h-346l65 82v636l-65 82h301c111 0 227 -77 227 -200c0 -82 -54 -152 -124 -183c89 -25 155 -107 155 -204zM444 590c0 80 -73 161 -218 161v-321c146 0 218 80 218 160zM481 166c0 117 -114 212 -255 212v-256l206 -81
c31 35 49 78 49 125z" />
    <glyph glyph-name="C" unicode="C" horiz-adv-x="648" 
d="M623 715l-104 -87c-63 63 -141 89 -225 89c-26 0 -52 -2 -77 -6c-36 -87 -44 -175 -44 -259c0 -207 112 -382 383 -411c-49 -34 -106 -53 -167 -53c-218 0 -334 210 -334 419c0 203 106 405 341 405c87 0 166 -36 227 -97z" />
    <glyph glyph-name="D" unicode="D" horiz-adv-x="719" 
d="M664 388c0 -196 -111 -388 -343 -388h-281l65 82v636l-65 82h274c229 0 350 -208 350 -412zM546 350c0 185 -95 342 -320 388v-599l259 -55c54 84 61 168 61 266z" />
    <glyph glyph-name="E" unicode="E" horiz-adv-x="558" 
d="M498 134v-134h-458l65 82v636l-65 82h458v-133l-272 94v-314h203v-124l-203 85v-369z" />
    <glyph glyph-name="F" unicode="F" horiz-adv-x="558" 
d="M498 800v-133l-272 94v-314h203v-124l-203 85v-326l65 -82h-251l65 82v636l-65 82h458z" />
    <glyph glyph-name="G" unicode="G" horiz-adv-x="703" 
d="M615 107l53 -46c-77 -49 -162 -74 -242 -74c-246 0 -371 217 -371 428c0 201 113 397 341 397c87 0 166 -36 227 -97l-104 -87c-63 63 -141 89 -225 89c-26 0 -52 -2 -77 -6c-31 -76 -48 -159 -48 -239c0 -197 99 -383 325 -429v294h121v-230z" />
    <glyph glyph-name="H" unicode="H" horiz-adv-x="740" 
d="M635 82l65 -82h-251l65 82v306h-288v-306l65 -82h-251l65 82v636l-65 82h251l-65 -82v-265h288v265l-65 82h251l-65 -82v-636z" />
    <glyph glyph-name="I" unicode="I" horiz-adv-x="331" 
d="M226 82l65 -82h-251l65 82v636l-65 82h251l-65 -82v-636z" />
    <glyph glyph-name="J" unicode="J" horiz-adv-x="540" 
d="M258 800h252l-65 -82v-523c0 -150 -101 -213 -214 -213c-73 0 -141 26 -201 71l84 80l210 -96v681z" />
    <glyph glyph-name="K" unicode="K" horiz-adv-x="657" 
d="M558 130l74 -56l-104 -88l-302 407v-311l65 -82h-251l65 82v636l-65 82h251l-65 -82v-310l248 310l-65 82h218l-293 -366z" />
    <glyph glyph-name="L" unicode="L" horiz-adv-x="538" 
d="M498 134v-134h-458l65 82v636l-65 82h251l-65 -82v-679z" />
    <glyph glyph-name="M" unicode="M" horiz-adv-x="856" 
d="M751 82l65 -82h-251l65 82v484l-231 -398l-233 401v-487l66 -82h-197l65 82v611l-53 55l105 88l281 -490l197 343v29l-65 82h251l-65 -82v-636z" />
    <glyph glyph-name="N" unicode="N" horiz-adv-x="732" 
d="M495 800h197l-65 -82v-580l60 -54l-116 -99l-400 621v-524l66 -82h-197l65 82v626l-59 92h142l373 -578v496z" />
    <glyph glyph-name="O" unicode="O" horiz-adv-x="787" 
d="M732 400c0 -228 -151 -413 -339 -413c-186 0 -338 185 -338 413s152 413 338 413c188 0 339 -185 339 -413zM612 347c0 190 -87 371 -318 371c-23 0 -44 -2 -70 -6c-33 -76 -52 -169 -52 -259c0 -190 87 -371 318 -371c23 0 44 2 70 6c33 76 52 169 52 259z" />
    <glyph glyph-name="P" unicode="P" horiz-adv-x="644" 
d="M604 573c0 -97 -67 -205 -255 -229l-123 -16v-246l65 -82h-251l65 82v636l-65 82h309c163 0 255 -117 255 -227zM489 514c0 124 -130 229 -263 239v-289l232 -54c21 35 31 70 31 104z" />
    <glyph glyph-name="Q" unicode="Q" horiz-adv-x="787" 
d="M732 400c0 -185 -99 -341 -237 -394l179 -98l-34 -59l-247 138c-186 0 -338 185 -338 413s152 413 338 413c188 0 339 -185 339 -413zM612 347c0 190 -87 371 -318 371c-23 0 -44 -2 -70 -6c-33 -76 -52 -169 -52 -259c0 -190 87 -371 318 -371c23 0 44 2 70 6
c33 76 52 169 52 259z" />
    <glyph glyph-name="R" unicode="R" horiz-adv-x="658" 
d="M544 130l74 -56l-107 -90l-285 393v-295l65 -82h-251l65 82v636l-65 82h296c163 0 255 -117 255 -227c0 -89 -56 -187 -211 -221zM477 516c0 122 -120 227 -251 237v-289l220 -51c21 34 31 70 31 103z" />
    <glyph glyph-name="S" unicode="S" horiz-adv-x="567" 
d="M517 205c0 -130 -105 -226 -230 -226c-86 0 -179 24 -252 72l107 91l202 -116c42 44 60 84 60 125c0 196 -314 245 -314 443c0 153 97 220 209 220c68 0 143 -25 206 -70l-98 -86l-189 105c-21 -37 -31 -72 -31 -103c0 -188 330 -229 330 -455z" />
    <glyph glyph-name="T" unicode="T" horiz-adv-x="656" 
d="M611 800v-133l-222 99v-685l65 -81h-251l65 81v685l-223 -99v133h566z" />
    <glyph glyph-name="U" unicode="U" horiz-adv-x="748" 
d="M467 800h251l-65 -82v-438c0 -161 -125 -293 -279 -293s-279 132 -279 294v437l-65 82h251l-65 -82v-375c0 -167 127 -269 255 -269c20 0 41 3 61 8v636z" />
    <glyph glyph-name="V" unicode="V" horiz-adv-x="718" 
d="M531 800h172l-342 -825l-288 693l-68 53l126 111l257 -616l208 502z" />
    <glyph glyph-name="W" unicode="W" horiz-adv-x="1100" 
d="M913 800h172l-342 -825l-191 460l-191 -460l-288 693l-68 53l126 111l257 -616l127 307l-60 145l-68 53l126 111l257 -616l208 502z" />
    <glyph glyph-name="X" unicode="X" horiz-adv-x="635" 
d="M565 135l67 -53l-112 -97l-218 341l-151 -237l72 -89h-212l250 390l-183 288l-68 53l112 97l211 -331l137 214l-72 89h209l-234 -366z" />
    <glyph glyph-name="Y" unicode="Y" horiz-adv-x="642" 
d="M446 800h181l-244 -455v-263l64 -82h-250l65 82v247l-189 351l-68 53l116 102l226 -420l163 303z" />
    <glyph glyph-name="Z" unicode="Z" horiz-adv-x="531" 
d="M52 800h454l-330 -758l304 91v-133h-455l333 763l-306 -96v133z" />
    <glyph glyph-name="bracketleft" unicode="[" horiz-adv-x="378" 
d="M318 -233v-66h-238v1099h238v-66h-172v-967h172z" />
    <glyph glyph-name="backslash" unicode="\" horiz-adv-x="538" 
d="M74 813l444 -814l-53 -39l-445 814z" />
    <glyph glyph-name="bracketright" unicode="]" horiz-adv-x="378" 
d="M298 800v-1099h-238v66h172v967h-172v66h238z" />
    <glyph glyph-name="grave" unicode="`" 
d="M172 837l237 -111l-26 -57l-238 111z" />
    <glyph glyph-name="a" unicode="a" horiz-adv-x="581" 
d="M482 147l54 -56l-120 -104l-49 106l-123 -106c-112 72 -189 191 -189 312c0 178 110 248 242 248c64 0 127 -17 185 -44v-356zM361 116v301l-202 59c-8 -33 -12 -67 -12 -99c0 -127 62 -240 214 -261z" />
    <glyph glyph-name="b" unicode="b" horiz-adv-x="579" 
d="M524 236c0 -178 -110 -248 -242 -248c-83 0 -172 29 -237 75l52 44v584l-52 54l173 149v-448l117 101c112 -72 189 -190 189 -311zM432 158c0 127 -62 240 -214 261v-301l202 -59c8 33 12 67 12 99z" />
    <glyph glyph-name="c" unicode="c" horiz-adv-x="511" 
d="M471 434l-98 -84s-67 117 -206 117c-9 -38 -14 -76 -14 -113c0 -159 91 -295 288 -295c-63 -61 -113 -72 -155 -72c-145 0 -231 150 -231 295c0 134 70 264 222 264c69 0 141 -33 194 -112z" />
    <glyph glyph-name="d" unicode="d" horiz-adv-x="581" 
d="M482 147l54 -56l-120 -104l-49 105l-123 -105c-112 72 -189 191 -189 312c0 178 110 248 242 248c22 0 41 -2 64 -6v150l-53 55l174 149v-748zM361 116v301l-202 59c-8 -33 -12 -67 -12 -99c0 -127 62 -240 214 -261z" />
    <glyph glyph-name="e" unicode="e" horiz-adv-x="547" 
d="M497 298l-297 -121c46 -71 125 -118 241 -118c-63 -61 -113 -72 -155 -72c-145 0 -231 150 -231 295c0 134 78 264 222 264c123 0 220 -126 220 -248zM157 300l224 -21c0 121 -92 188 -214 188c-9 -38 -14 -76 -14 -113c0 -18 1 -36 4 -54z" />
    <glyph glyph-name="f" unicode="f" horiz-adv-x="452" 
d="M527 823l-126 -107l-122 57v-263h123v-66h-123v-362l65 -82h-251l65 82v362h-123v66h123v86c0 176 116 252 249 252c39 0 80 -8 120 -25z" />
    <glyph glyph-name="g" unicode="g" horiz-adv-x="571" 
d="M521 475l-57 -48c19 -35 30 -76 30 -119c0 -122 -84 -223 -192 -237l-29 -35c129 -22 184 -102 184 -181c0 -77 -58 -149 -190 -149c-56 0 -111 17 -161 40l93 96l172 -78c4 15 6 30 6 43c0 110 -129 146 -250 146l100 121c-113 28 -172 133 -172 237
c0 118 76 235 233 235c82 0 169 -28 233 -71zM392 244c0 137 -91 211 -219 232c-11 -35 -18 -71 -18 -107c0 -137 91 -211 219 -232c11 35 18 71 18 107z" />
    <glyph glyph-name="h" unicode="h" horiz-adv-x="622" 
d="M531 82l66 -82h-188v290c0 85 -55 154 -136 154h-52v-362l65 -82h-251l65 82v587l-52 55l173 148v-396l98 84c125 -17 212 -127 212 -257v-221z" />
    <glyph glyph-name="i" unicode="i" horiz-adv-x="321" 
d="M221 800v-121h-121v121h121zM221 82l65 -82h-251l65 82v274l-52 55l173 149v-478z" />
    <glyph glyph-name="j" unicode="j" horiz-adv-x="321" 
d="M221 800v-121h-121v121h121zM221 560v-581c0 -111 -65 -229 -147 -290l-97 81c75 51 123 140 123 233v353l-52 55z" />
    <glyph glyph-name="k" unicode="k" horiz-adv-x="586" 
d="M305 510h256l-225 -219l136 -175l76 -49l-107 -93l-220 273v-165l65 -82h-251l65 82v609l-52 55l173 149v-638l162 157z" />
    <glyph glyph-name="l" unicode="l" horiz-adv-x="321" 
d="M221 82l65 -82h-251l65 82v609l-52 55l173 149v-813z" />
    <glyph glyph-name="m" unicode="m" horiz-adv-x="892" 
d="M801 82l66 -82h-188v295c0 85 -60 149 -141 149h-27v-362l66 -82h-188v295c0 85 -60 149 -141 149h-27v-362l65 -82h-251l65 82v318l-53 56l120 104l44 -95l103 90c66 -16 126 -55 161 -111l129 111c113 -27 197 -131 197 -252v-221z" />
    <glyph glyph-name="n" unicode="n" horiz-adv-x="622" 
d="M531 82l66 -82h-188v290c0 85 -55 154 -136 154h-52v-362l65 -82h-251l65 82v318l-53 56l120 104l44 -95l104 91c125 -16 216 -123 216 -253v-221z" />
    <glyph glyph-name="o" unicode="o" horiz-adv-x="570" 
d="M515 266c0 -160 -105 -279 -230 -279s-230 120 -230 280s105 279 230 279s230 -120 230 -280zM416 175c0 144 -84 292 -245 292c-11 -34 -16 -71 -16 -109c0 -144 80 -292 244 -292c11 34 17 71 17 109z" />
    <glyph glyph-name="p" unicode="p" horiz-adv-x="571" 
d="M516 236c0 -178 -110 -248 -242 -248c-22 0 -41 2 -64 6v-150l53 -55l-174 -149v747l-54 56l121 104l48 -106l123 106c112 -72 189 -190 189 -311zM424 158c0 127 -62 240 -214 261v-301l202 -59c8 33 12 67 12 99z" />
    <glyph glyph-name="q" unicode="q" horiz-adv-x="579" 
d="M482 -156l52 -54l-173 -149v447l-117 -101c-112 72 -189 191 -189 312c0 178 110 248 242 248c84 0 172 -29 237 -75l-52 -45v-583zM361 116v301l-202 59c-8 -33 -12 -67 -12 -99c0 -127 62 -240 214 -261z" />
    <glyph glyph-name="r" unicode="r" horiz-adv-x="493" 
d="M468 474l-93 -81s-46 51 -113 51h-41v-362l65 -82h-251l65 82v318l-53 56l120 104l44 -95l105 91c61 -8 114 -38 152 -82z" />
    <glyph glyph-name="s" unicode="s" horiz-adv-x="480" 
d="M425 145c0 -101 -88 -162 -182 -162c-78 0 -151 33 -213 78l90 79l189 -107s15 22 15 61c0 66 -79 98 -149 141c-55 35 -106 79 -106 155c0 91 77 158 165 158c79 0 127 -21 189 -67l-93 -82l-159 95s-16 -17 -16 -58c0 -55 66 -88 131 -125c69 -39 139 -83 139 -166z
" />
    <glyph glyph-name="t" unicode="t" horiz-adv-x="442" 
d="M402 510v-66h-123v-298l52 -54l-121 -105c-36 58 -52 115 -52 184v273h-123v66h123v63l-52 55l173 149v-267h123z" />
    <glyph glyph-name="u" unicode="u" horiz-adv-x="619" 
d="M520 142l54 -57l-121 -103l-43 94l-105 -91c-126 17 -218 124 -218 253v118l-52 55l173 149v-309c0 -84 54 -153 136 -153h55v258l-52 55l173 149v-418z" />
    <glyph glyph-name="v" unicode="v" horiz-adv-x="573" 
d="M350 510h198l-265 -528l-191 415l-67 57l121 104l169 -367l113 223z" />
    <glyph glyph-name="w" unicode="w" horiz-adv-x="890" 
d="M667 510h198l-265 -528l-152 329l-165 -329l-191 415l-67 57l121 104l169 -367l101 200l-74 63l121 104l169 -367l113 223z" />
    <glyph glyph-name="x" unicode="x" horiz-adv-x="567" 
d="M471 117l71 -52l-105 -88l-188 234l-77 -115l77 -96h-213l176 257l-115 144l-72 53l106 92l189 -238l73 105l-77 97h214l-172 -250z" />
    <glyph glyph-name="y" unicode="y" horiz-adv-x="586" 
d="M375 510h186l-257 -713l78 -96h-186l74 203l-178 482l-67 57l130 112l178 -476l120 335z" />
    <glyph glyph-name="z" unicode="z" horiz-adv-x="507" 
d="M73 510h384l-254 -476l247 91v-125h-400l254 476l-231 -98v132z" />
    <glyph glyph-name="braceleft" unicode="{" horiz-adv-x="499" 
d="M439 -233v-66h-238v442l-181 107l181 106v444h238v-66h-172v-414l-121 -70l121 -72v-411h172z" />
    <glyph glyph-name="bar" unicode="|" horiz-adv-x="226" 
d="M146 800v-1099h-66v1099h66z" />
    <glyph glyph-name="braceright" unicode="}" horiz-adv-x="499" 
d="M298 358l181 -107l-181 -106v-444h-238v66h172v414l121 70l-121 72v411h-172v66h238v-442z" />
    <glyph glyph-name="asciitilde" unicode="~" horiz-adv-x="567" 
d="M527 276l-42 -52c-30 25 -64 56 -105 56c-60 0 -114 -68 -195 -68c-59 0 -101 34 -145 70l42 51c29 -24 63 -55 103 -55c61 0 116 68 197 68c59 0 101 -35 145 -70z" />
    <glyph glyph-name="Adieresis" unicode="&#xc4;" horiz-adv-x="762" 
d="M687 82l65 -82h-254l65 82l-60 152h-295l-64 -152l65 -82h-199l65 82l307 738zM237 303h238l-116 291zM542 996v-101h-101v101h101zM322 996v-101h-101v101h101z" />
    <glyph glyph-name="Aring" unicode="&#xc5;" horiz-adv-x="762" 
d="M687 82l65 -82h-254l65 82l-60 152h-295l-64 -152l65 -82h-199l65 82l283 681c-51 12 -89 57 -89 112c0 64 51 115 115 115c63 0 115 -51 115 -115c0 -56 -40 -103 -93 -113zM459 875c0 42 -34 75 -75 75c-42 0 -75 -33 -75 -75c0 -41 33 -75 75 -75c41 0 75 34 75 75z
M237 303h238l-116 291z" />
    <glyph glyph-name="Ccedilla" unicode="&#xc7;" horiz-adv-x="648" 
d="M492 -80l-87 -74c-57 22 -130 32 -183 34l154 131h74l-63 -54c46 -8 78 -20 105 -37zM623 715l-104 -87c-63 63 -141 89 -225 89c-26 0 -52 -2 -77 -6c-36 -87 -44 -175 -44 -259c0 -207 112 -382 383 -411c-49 -34 -106 -53 -167 -53c-218 0 -334 210 -334 419
c0 203 106 405 341 405c87 0 166 -36 227 -97z" />
    <glyph glyph-name="Eacute" unicode="&#xc9;" horiz-adv-x="558" 
d="M498 134v-134h-458l65 82v636l-65 82h458v-133l-272 94v-314h203v-124l-203 85v-369zM369 1055l27 -57l-238 -111l-26 57z" />
    <glyph glyph-name="Ntilde" unicode="&#xd1;" horiz-adv-x="732" 
d="M495 800h197l-65 -82v-580l60 -54l-116 -99l-400 621v-524l66 -82h-197l65 82v626l-59 92h142l373 -578v496zM486 989l45 -40c-29 -30 -55 -63 -101 -63c-57 0 -93 56 -124 56c-19 0 -43 -34 -55 -47l-45 40c28 31 53 67 100 67c56 0 90 -56 124 -56c20 0 43 29 56 43z
" />
    <glyph glyph-name="Odieresis" unicode="&#xd6;" horiz-adv-x="787" 
d="M732 400c0 -228 -151 -413 -339 -413c-186 0 -338 185 -338 413s152 413 338 413c188 0 339 -185 339 -413zM612 347c0 190 -87 371 -318 371c-23 0 -44 -2 -70 -6c-33 -76 -52 -169 -52 -259c0 -190 87 -371 318 -371c23 0 44 2 70 6c33 76 52 169 52 259zM555 996v-101
h-101v101h101zM335 996v-101h-101v101h101z" />
    <glyph glyph-name="Udieresis" unicode="&#xdc;" horiz-adv-x="753" 
d="M467 800h251l-65 -82v-438c0 -161 -125 -293 -279 -293s-279 132 -279 294v437l-65 82h251l-65 -82v-375c0 -167 127 -269 255 -269c20 0 41 3 61 8v636zM538 996v-101h-101v101h101zM318 996v-101h-101v101h101z" />
    <glyph glyph-name="aacute" unicode="&#xe1;" horiz-adv-x="581" 
d="M482 147l54 -56l-120 -104l-49 106l-123 -106c-112 72 -189 191 -189 312c0 178 110 248 242 248c64 0 127 -17 185 -44v-356zM361 116v301l-202 59c-8 -33 -12 -67 -12 -99c0 -127 62 -240 214 -261zM387 837l27 -57l-238 -111l-26 57z" />
    <glyph glyph-name="agrave" unicode="&#xe0;" horiz-adv-x="581" 
d="M482 147l54 -56l-120 -104l-49 106l-123 -106c-112 72 -189 191 -189 312c0 178 110 248 242 248c64 0 127 -17 185 -44v-356zM361 116v301l-202 59c-8 -33 -12 -67 -12 -99c0 -127 62 -240 214 -261zM185 837l237 -111l-26 -57l-238 111z" />
    <glyph glyph-name="acircumflex" unicode="&#xe2;" horiz-adv-x="581" 
d="M482 147l54 -56l-120 -104l-49 106l-123 -106c-112 72 -189 191 -189 312c0 178 110 248 242 248c64 0 127 -17 185 -44v-356zM361 116v301l-202 59c-8 -33 -12 -67 -12 -99c0 -127 62 -240 214 -261zM299 837l148 -82l-30 -55l-118 65l-118 -65l-30 55z" />
    <glyph glyph-name="adieresis" unicode="&#xe4;" horiz-adv-x="581" 
d="M482 147l54 -56l-120 -104l-49 106l-123 -106c-112 72 -189 191 -189 312c0 178 110 248 242 248c64 0 127 -17 185 -44v-356zM361 116v301l-202 59c-8 -33 -12 -67 -12 -99c0 -127 62 -240 214 -261zM451 800v-101h-101v101h101zM231 800v-101h-101v101h101z" />
    <glyph glyph-name="atilde" unicode="&#xe3;" horiz-adv-x="581" 
d="M482 147l54 -56l-120 -104l-49 106l-123 -106c-112 72 -189 191 -189 312c0 178 110 248 242 248c64 0 127 -17 185 -44v-356zM361 116v301l-202 59c-8 -33 -12 -67 -12 -99c0 -127 62 -240 214 -261zM400 800l45 -40c-29 -30 -55 -63 -101 -63c-57 0 -93 56 -124 56
c-19 0 -43 -34 -55 -47l-45 40c28 31 53 67 100 67c56 0 90 -56 124 -56c20 0 43 29 56 43z" />
    <glyph glyph-name="aring" unicode="&#xe5;" horiz-adv-x="581" 
d="M482 147l54 -56l-120 -104l-49 106l-123 -106c-112 72 -189 191 -189 312c0 178 110 248 242 248c64 0 127 -17 185 -44v-356zM361 116v301l-202 59c-8 -33 -12 -67 -12 -99c0 -127 62 -240 214 -261zM416 722c0 -64 -51 -115 -115 -115c-63 0 -115 51 -115 115
c0 63 52 115 115 115c64 0 115 -52 115 -115zM376 722c0 41 -33 75 -75 75c-41 0 -75 -33 -75 -75s34 -75 75 -75c42 0 75 33 75 75z" />
    <glyph glyph-name="ccedilla" unicode="&#xe7;" horiz-adv-x="511" 
d="M471 434l-98 -84s-67 117 -206 117c-9 -38 -14 -76 -14 -113c0 -159 91 -295 288 -295c-63 -61 -113 -72 -155 -72c-145 0 -231 150 -231 295c0 134 70 264 222 264c69 0 141 -33 194 -112zM372 -80l-87 -74c-57 22 -130 32 -183 34l154 131h74l-63 -54
c46 -8 78 -20 105 -37z" />
    <glyph glyph-name="eacute" unicode="&#xe9;" horiz-adv-x="547" 
d="M497 298l-297 -121c46 -71 125 -118 241 -118c-63 -61 -113 -72 -155 -72c-145 0 -231 150 -231 295c0 134 78 264 222 264c123 0 220 -126 220 -248zM157 300l224 -21c0 121 -92 188 -214 188c-9 -38 -14 -76 -14 -113c0 -18 1 -36 4 -54zM371 837l27 -57l-238 -111
l-26 57z" />
    <glyph glyph-name="egrave" unicode="&#xe8;" horiz-adv-x="547" 
d="M497 298l-297 -121c46 -71 125 -118 241 -118c-63 -61 -113 -72 -155 -72c-145 0 -231 150 -231 295c0 134 78 264 222 264c123 0 220 -126 220 -248zM157 300l224 -21c0 121 -92 188 -214 188c-9 -38 -14 -76 -14 -113c0 -18 1 -36 4 -54zM172 837l237 -111l-26 -57
l-238 111z" />
    <glyph glyph-name="ecircumflex" unicode="&#xea;" horiz-adv-x="547" 
d="M497 298l-297 -121c46 -71 125 -118 241 -118c-63 -61 -113 -72 -155 -72c-145 0 -231 150 -231 295c0 134 78 264 222 264c123 0 220 -126 220 -248zM157 300l224 -21c0 121 -92 188 -214 188c-9 -38 -14 -76 -14 -113c0 -18 1 -36 4 -54zM275 837l148 -82l-30 -55
l-118 65l-118 -65l-30 55z" />
    <glyph glyph-name="edieresis" unicode="&#xeb;" horiz-adv-x="547" 
d="M497 298l-297 -121c46 -71 125 -118 241 -118c-63 -61 -113 -72 -155 -72c-145 0 -231 150 -231 295c0 134 78 264 222 264c123 0 220 -126 220 -248zM157 300l224 -21c0 121 -92 188 -214 188c-9 -38 -14 -76 -14 -113c0 -18 1 -36 4 -54zM436 800v-101h-101v101h101z
M216 800v-101h-101v101h101z" />
    <glyph glyph-name="iacute" unicode="&#xed;" horiz-adv-x="321" 
d="M240 841l27 -57l-238 -111l-26 57zM221 82l65 -82h-251l65 82v274l-52 55l173 149v-478z" />
    <glyph glyph-name="igrave" unicode="&#xec;" horiz-adv-x="321" 
d="M48 837l237 -111l-26 -57l-238 111zM220 82l65 -82h-251l65 82v274l-52 55l173 149v-478z" />
    <glyph glyph-name="icircumflex" unicode="&#xee;" horiz-adv-x="321" 
d="M150 837l148 -82l-30 -55l-118 65l-118 -65l-30 55zM221 82l65 -82h-251l65 82v274l-52 55l173 149v-478z" />
    <glyph glyph-name="idieresis" unicode="&#xef;" horiz-adv-x="321" 
d="M321 800v-101h-101v101h101zM101 800v-101h-101v101h101zM221 82l65 -82h-251l65 82v274l-52 55l173 149v-478z" />
    <glyph glyph-name="ntilde" unicode="&#xf1;" horiz-adv-x="622" 
d="M531 82l66 -82h-188v290c0 85 -55 154 -136 154h-52v-362l65 -82h-251l65 82v318l-53 56l120 104l44 -95l104 91c125 -16 216 -123 216 -253v-221zM400 800l45 -40c-29 -30 -55 -63 -101 -63c-57 0 -93 56 -124 56c-19 0 -43 -34 -55 -47l-45 40c28 31 53 67 100 67
c56 0 90 -56 124 -56c20 0 43 29 56 43z" />
    <glyph glyph-name="oacute" unicode="&#xf3;" horiz-adv-x="570" 
d="M515 266c0 -160 -105 -279 -230 -279s-230 120 -230 280s105 279 230 279s230 -120 230 -280zM416 175c0 144 -84 292 -245 292c-11 -34 -16 -71 -16 -109c0 -144 80 -292 244 -292c11 34 17 71 17 109zM382 837l27 -57l-238 -111l-26 57z" />
    <glyph glyph-name="ograve" unicode="&#xf2;" horiz-adv-x="570" 
d="M515 266c0 -160 -105 -279 -230 -279s-230 120 -230 280s105 279 230 279s230 -120 230 -280zM416 175c0 144 -84 292 -245 292c-11 -34 -16 -71 -16 -109c0 -144 80 -292 244 -292c11 34 17 71 17 109zM172 837l237 -111l-26 -57l-238 111z" />
    <glyph glyph-name="ocircumflex" unicode="&#xf4;" horiz-adv-x="570" 
d="M515 266c0 -160 -105 -279 -230 -279s-230 120 -230 280s105 279 230 279s230 -120 230 -280zM416 175c0 144 -84 292 -245 292c-11 -34 -16 -71 -16 -109c0 -144 80 -292 244 -292c11 34 17 71 17 109zM275 837l148 -82l-30 -55l-118 65l-118 -65l-30 55z" />
    <glyph glyph-name="odieresis" unicode="&#xf6;" horiz-adv-x="570" 
d="M515 266c0 -160 -105 -279 -230 -279s-230 120 -230 280s105 279 230 279s230 -120 230 -280zM416 175c0 144 -84 292 -245 292c-11 -34 -16 -71 -16 -109c0 -144 80 -292 244 -292c11 34 17 71 17 109zM436 800v-101h-101v101h101zM216 800v-101h-101v101h101z" />
    <glyph glyph-name="otilde" unicode="&#xf5;" horiz-adv-x="570" 
d="M515 266c0 -160 -105 -279 -230 -279s-230 120 -230 280s105 279 230 279s230 -120 230 -280zM416 175c0 144 -84 292 -245 292c-11 -34 -16 -71 -16 -109c0 -144 80 -292 244 -292c11 34 17 71 17 109zM400 800l45 -40c-29 -30 -55 -63 -101 -63c-57 0 -93 56 -124 56
c-19 0 -43 -34 -55 -47l-45 40c28 31 53 67 100 67c56 0 90 -56 124 -56c20 0 43 29 56 43z" />
    <glyph glyph-name="uacute" unicode="&#xfa;" horiz-adv-x="619" 
d="M520 142l54 -57l-121 -103l-43 94l-105 -91c-126 17 -218 124 -218 253v118l-52 55l173 149v-309c0 -84 54 -153 136 -153h55v258l-52 55l173 149v-418zM382 837l27 -57l-238 -111l-26 57z" />
    <glyph glyph-name="ugrave" unicode="&#xf9;" horiz-adv-x="619" 
d="M520 142l54 -57l-121 -103l-43 94l-105 -91c-126 17 -218 124 -218 253v118l-52 55l173 149v-309c0 -84 54 -153 136 -153h55v258l-52 55l173 149v-418zM172 837l237 -111l-26 -57l-238 111z" />
    <glyph glyph-name="ucircumflex" unicode="&#xfb;" horiz-adv-x="619" 
d="M520 142l54 -57l-121 -103l-43 94l-105 -91c-126 17 -218 124 -218 253v118l-52 55l173 149v-309c0 -84 54 -153 136 -153h55v258l-52 55l173 149v-418zM291 837l148 -82l-30 -55l-118 65l-118 -65l-30 55z" />
    <glyph glyph-name="udieresis" unicode="&#xfc;" horiz-adv-x="619" 
d="M520 142l54 -57l-121 -103l-43 94l-105 -91c-126 17 -218 124 -218 253v118l-52 55l173 149v-309c0 -84 54 -153 136 -153h55v258l-52 55l173 149v-418zM461 800v-101h-101v101h101zM241 800v-101h-101v101h101z" />
    <glyph glyph-name="dagger" unicode="&#x2020;" horiz-adv-x="429" 
d="M409 531v-107l-172 36l30 -500h-106l30 500l-171 -36v107l171 -35l-30 176h106l-30 -176z" />
    <glyph glyph-name="degree" unicode="&#xb0;" horiz-adv-x="482" 
d="M432 621c0 -105 -86 -191 -191 -191s-191 86 -191 191c0 106 86 192 191 192s191 -86 191 -192zM392 621c0 84 -67 152 -151 152s-151 -68 -151 -152c0 -83 67 -151 151 -151s151 68 151 151z" />
    <glyph glyph-name="cent" unicode="&#xa2;" horiz-adv-x="511" 
d="M471 434l-98 -84s-67 117 -206 117c-9 -38 -14 -76 -14 -113c0 -159 91 -295 288 -295c-49 -47 -89 -64 -125 -70v-199h-66v200c-123 22 -195 159 -195 292c0 126 62 248 195 263v200h66v-203c57 -10 112 -44 155 -108z" />
    <glyph glyph-name="sterling" unicode="&#xa3;" horiz-adv-x="570" 
d="M510 747l-92 -88l-202 99v-311h203v-124l-203 85v-369l272 95v-134h-458l65 82v524c0 149 101 212 214 212c73 0 141 -26 201 -71z" />
    <glyph glyph-name="section" unicode="&#xa7;" horiz-adv-x="475" 
d="M420 -117c0 -101 -88 -162 -182 -162c-78 0 -151 33 -213 78l90 79l174 -111s18 24 18 68c0 124 -243 124 -243 292c0 56 30 104 73 131c-41 31 -73 70 -73 131c0 91 77 158 165 158c79 0 127 -21 189 -67l-93 -82l-144 98c-13 -19 -19 -41 -19 -64
c0 -116 258 -128 258 -287c0 -61 -32 -107 -78 -135c44 -31 78 -69 78 -127zM307 97c0 64 -65 95 -128 134c-12 -19 -17 -39 -17 -61c0 -59 67 -92 133 -130c5 11 12 30 12 57z" />
    <glyph glyph-name="bullet" unicode="&#x2022;" horiz-adv-x="901" 
d="M612 420l239 -231l-320 91l-81 -322l-81 322l-319 -91l239 231l-239 231l319 -91l81 323l81 -323l320 91z" />
    <glyph glyph-name="paragraph" unicode="&#xb6;" horiz-adv-x="629" 
d="M534 -118l65 -82h-131v934h-141v-934h-131l65 82v534c-141 4 -211 97 -211 191c0 96 75 193 224 193h325l-65 -82v-836z" />
    <glyph glyph-name="germandbls" unicode="&#xdf;" horiz-adv-x="681" 
d="M631 220c0 -121 -93 -233 -230 -233c-50 0 -101 20 -146 45l97 85l108 -80c34 54 47 104 47 148c0 137 -110 199 -194 231l91 254l-183 91v-761h-186l65 82v524c0 126 99 215 221 215c92 0 164 -32 238 -89l-94 -256c120 -78 166 -163 166 -256z" />
    <glyph glyph-name="registered" unicode="&#xae;" horiz-adv-x="926" 
d="M856 352c0 -217 -176 -393 -393 -393s-393 176 -393 393s176 393 393 393s393 -176 393 -393zM801 352c0 187 -152 339 -338 339c-187 0 -339 -152 -339 -339c0 -186 152 -338 339 -338c186 0 338 152 338 338zM608 204l42 -33l-69 -55l-151 195l-20 -2v-138l40 -46h-153
l40 46v356l-40 46h188c100 0 158 -66 158 -128c0 -48 -35 -102 -127 -122zM568 409c0 71 -74 131 -158 137v-161l142 -31c11 18 16 37 16 55z" />
    <glyph glyph-name="copyright" unicode="&#xa9;" horiz-adv-x="926" 
d="M856 352c0 -217 -176 -393 -393 -393s-393 176 -393 393s176 393 393 393s393 -176 393 -393zM801 352c0 187 -152 339 -338 339c-187 0 -339 -152 -339 -339c0 -186 152 -338 339 -338c186 0 338 152 338 338zM622 510l-69 -54c-63 58 -128 64 -160 64h-20
c-19 -44 -28 -89 -28 -132c0 -117 70 -219 231 -239c-30 -19 -65 -29 -102 -29c-113 0 -206 97 -206 228c0 130 90 227 207 227c58 0 110 -24 147 -65z" />
    <glyph glyph-name="trademark" unicode="&#x2122;" horiz-adv-x="761" 
d="M693 446l38 -46h-146l38 46v217l-108 -182l-109 183v-218l38 -46h-119l38 46v295l-29 29l63 52l136 -232l94 159l-42 51h146l-38 -47v-307zM323 800v-72l-111 39v-321l38 -46h-146l38 46v321l-112 -39v72h293z" />
    <glyph glyph-name="acute" unicode="&#xb4;" 
d="M382 837l27 -57l-238 -111l-26 57z" />
    <glyph glyph-name="dieresis" unicode="&#xa8;" 
d="M436 800v-101h-101v101h101zM216 800v-101h-101v101h101z" />
    <glyph glyph-name="AE" unicode="&#xc6;" horiz-adv-x="897" 
d="M837 133v-133h-458l65 82v152h-226l-79 -152l65 -82h-204l65 82l369 718h403v-133l-272 94v-314h203v-124l-203 85v-369zM254 303h190v367z" />
    <glyph glyph-name="Oslash" unicode="&#xd8;" horiz-adv-x="787" 
d="M732 400c0 -228 -151 -413 -339 -413c-30 0 -60 5 -88 14l-153 -142l-49 66l124 115c-102 71 -172 206 -172 360c0 228 152 413 338 413c30 0 60 -5 87 -14l153 142l49 -66l-124 -114c104 -71 174 -206 174 -361zM612 347c0 190 -87 371 -318 371c-23 0 -44 -2 -70 -6
c-33 -76 -52 -169 -52 -259c0 -190 87 -371 318 -371c23 0 44 2 70 6c33 76 52 169 52 259z" />
    <glyph glyph-name="plusminus" unicode="&#xb1;" horiz-adv-x="492" 
d="M422 432v-66h-143v-143h-66v143h-143v66h143v143h66v-143h143zM422 152v-66h-352v66h352z" />
    <glyph glyph-name="yen" unicode="&#xa5;" horiz-adv-x="642" 
d="M446 800h181l-244 -455h184v-66h-184v-197l64 -82h-250l65 82v197h-182v66h173l-180 335l-68 53l116 102l226 -420l163 303z" />
    <glyph glyph-name="mu" unicode="&#xb5;" horiz-adv-x="619" 
d="M520 142l54 -57l-121 -103l-43 94l-105 -91c-35 5 -68 17 -97 34v-175l53 -55l-174 -149v716l-52 55l173 149v-309c0 -84 54 -153 136 -153h55v258l-52 55l173 149v-418z" />
    <glyph glyph-name="integral" unicode="&#x222b;" horiz-adv-x="432" 
d="M512 823l-126 -107l-122 57v-859c0 -176 -116 -252 -249 -252c-39 0 -80 8 -120 25l126 107l122 -57v859c0 176 116 252 249 252c39 0 80 -8 120 -25z" />
    <glyph glyph-name="ordfeminine" unicode="&#xaa;" horiz-adv-x="389" 
d="M311 573l33 -34l-72 -62l-30 64l-74 -64c-67 43 -113 115 -113 187c0 107 66 149 145 149c39 0 76 -10 111 -26v-214zM239 554v181l-122 35c-4 -19 -7 -40 -7 -59c0 -76 37 -144 129 -157z" />
    <glyph glyph-name="ordmasculine" unicode="&#xba;" horiz-adv-x="386" 
d="M331 645c0 -96 -63 -167 -138 -167s-138 72 -138 168s63 167 138 167s138 -72 138 -168zM272 591c0 86 -51 175 -147 175c-7 -21 -10 -43 -10 -65c0 -87 48 -176 146 -176c7 20 11 43 11 66z" />
    <glyph glyph-name="ae" unicode="&#xe6;" horiz-adv-x="853" 
d="M803 298l-297 -121c46 -71 125 -118 241 -118c-63 -61 -113 -72 -155 -72c-89 0 -155 56 -194 133l-154 -133c-112 72 -189 191 -189 312c0 178 110 248 242 248c58 0 115 -14 169 -37c32 23 71 36 117 36c123 0 220 -126 220 -248zM482 298l205 -19
c0 118 -88 185 -205 188v-169zM361 116v301l-202 59c-8 -33 -12 -67 -12 -99c0 -127 62 -240 214 -261z" />
    <glyph glyph-name="oslash" unicode="&#xf8;" horiz-adv-x="570" 
d="M515 266c0 -158 -103 -277 -226 -279l-137 -107l-50 64l87 68c-78 43 -134 139 -134 255c0 159 103 277 227 279l136 106l50 -64l-87 -67c79 -44 134 -139 134 -255zM416 175c0 144 -84 292 -245 292c-11 -34 -16 -71 -16 -109c0 -144 80 -292 244 -292
c11 34 17 71 17 109z" />
    <glyph glyph-name="questiondown" unicode="&#xbf;" horiz-adv-x="551" 
d="M345 800v-121h-121v121h121zM491 190c0 -110 -86 -203 -216 -203c-125 0 -225 101 -225 225c0 51 21 105 48 148l156 251l111 -97l-70 -60l33 -20c114 -69 163 -152 163 -244zM400 156c0 82 -59 143 -133 185l-30 17l-114 -182l247 -133c24 37 30 78 30 113z" />
    <glyph glyph-name="exclamdown" unicode="&#xa1;" horiz-adv-x="281" 
d="M201 800v-121h-121v121h121zM201 584v-584h-121v584h121z" />
    <glyph glyph-name="florin" unicode="&#x192;" horiz-adv-x="432" 
d="M512 823l-126 -107l-122 57v-263h123v-66h-123v-530c0 -176 -116 -252 -249 -252c-39 0 -80 8 -120 25l126 107l122 -57v707h-123v66h123v86c0 176 116 252 249 252c39 0 80 -8 120 -25z" />
    <glyph glyph-name="guillemotleft" unicode="&#xab;" horiz-adv-x="515" 
d="M329 344l136 -136l-47 -46l-182 182l182 182l47 -47zM143 344l136 -136l-47 -46l-182 182l182 182l47 -47z" />
    <glyph glyph-name="guillemotright" unicode="&#xbb;" horiz-adv-x="515" 
d="M283 526l182 -182l-182 -182l-47 47l136 135l-136 136zM97 526l182 -182l-182 -182l-47 47l136 135l-136 136z" />
    <glyph glyph-name="ellipsis" unicode="&#x2026;" horiz-adv-x="761" 
d="M181 121v-121h-121v121h121zM441 121v-121h-121v121h121zM701 121v-121h-121v121h121z" />
    <glyph glyph-name="nbspace" unicode="&#xa0;" horiz-adv-x="250" 
 />
    <glyph glyph-name="Agrave" unicode="&#xc0;" horiz-adv-x="762" 
d="M687 82l65 -82h-254l65 82l-60 152h-295l-64 -152l65 -82h-199l65 82l307 738zM237 303h238l-116 291zM262 1053l237 -111l-26 -57l-238 111z" />
    <glyph glyph-name="Atilde" unicode="&#xc3;" horiz-adv-x="762" 
d="M687 82l65 -82h-254l65 82l-60 152h-295l-64 -152l65 -82h-199l65 82l307 738zM237 303h238l-116 291zM486 989l45 -40c-29 -30 -55 -63 -101 -63c-57 0 -93 56 -124 56c-19 0 -43 -34 -55 -47l-45 40c28 31 53 67 100 67c56 0 90 -56 124 -56c20 0 43 29 56 43z" />
    <glyph glyph-name="Otilde" unicode="&#xd5;" horiz-adv-x="787" 
d="M732 400c0 -228 -151 -413 -339 -413c-186 0 -338 185 -338 413s152 413 338 413c188 0 339 -185 339 -413zM612 347c0 190 -87 371 -318 371c-23 0 -44 -2 -70 -6c-33 -76 -52 -169 -52 -259c0 -190 87 -371 318 -371c23 0 44 2 70 6c33 76 52 169 52 259zM516 989
l45 -40c-29 -30 -55 -63 -101 -63c-57 0 -93 56 -124 56c-19 0 -43 -34 -55 -47l-45 40c28 31 53 67 100 67c56 0 90 -56 124 -56c20 0 43 29 56 43z" />
    <glyph glyph-name="OE" unicode="&#x152;" horiz-adv-x="1072" 
d="M1017 133v-133h-453l82 103v21c-62 -84 -152 -137 -253 -137c-186 0 -338 185 -338 413s152 413 338 413c101 0 191 -53 253 -137v22l-82 102h453v-133l-272 94v-314h203v-124l-203 85v-369zM612 347c0 190 -87 371 -318 371c-23 0 -44 -2 -70 -6
c-33 -76 -52 -169 -52 -259c0 -190 87 -371 318 -371c23 0 44 2 70 6c33 76 52 169 52 259z" />
    <glyph glyph-name="oe" unicode="&#x153;" horiz-adv-x="900" 
d="M850 298l-297 -121c46 -71 125 -118 241 -118c-63 -61 -113 -72 -155 -72c-76 0 -136 41 -176 101c-42 -62 -107 -101 -178 -101c-125 0 -230 120 -230 280s105 279 230 279c68 0 130 -35 172 -93c37 56 96 93 173 93c123 0 220 -126 220 -248zM510 300l224 -21
c0 121 -92 188 -214 188c-9 -38 -14 -76 -14 -113c0 -18 1 -36 4 -54zM416 175c0 144 -84 292 -245 292c-11 -34 -16 -71 -16 -109c0 -144 80 -292 244 -292c11 34 17 71 17 109z" />
    <glyph glyph-name="endash" unicode="&#x2013;" horiz-adv-x="640" 
d="M570 331v-66h-500v66h500z" />
    <glyph glyph-name="emdash" unicode="&#x2014;" horiz-adv-x="1140" 
d="M1070 331v-66h-1000v66h1000z" />
    <glyph glyph-name="quotedblleft" unicode="&#x201c;" horiz-adv-x="468" 
d="M345 848l93 -76l-124 -214l-94 77zM125 848l93 -76l-124 -214l-94 77z" />
    <glyph glyph-name="quotedblright" unicode="&#x201d;" horiz-adv-x="438" 
d="M345 848l93 -76l-124 -214l-94 77zM125 848l93 -76l-124 -214l-94 77z" />
    <glyph glyph-name="quoteleft" unicode="&#x2018;" horiz-adv-x="248" 
d="M125 848l93 -76l-124 -214l-94 77z" />
    <glyph glyph-name="quoteright" unicode="&#x2019;" horiz-adv-x="218" 
d="M125 848l93 -76l-124 -214l-94 77z" />
    <glyph glyph-name="divide" unicode="&#xf7;" horiz-adv-x="472" 
d="M269 510v-66h-66v66h66zM402 377v-66h-332v66h332zM269 244v-66h-66v66h66z" />
    <glyph glyph-name="ydieresis" unicode="&#xff;" horiz-adv-x="586" 
d="M375 510h186l-257 -713l78 -96h-186l74 203l-178 482l-67 57l130 112l178 -476l120 335zM436 800v-101h-101v101h101zM216 800v-101h-101v101h101z" />
    <glyph glyph-name="Ydieresis" unicode="&#x178;" horiz-adv-x="642" 
d="M446 800h181l-244 -455v-263l64 -82h-250l65 82v247l-189 351l-68 53l116 102l226 -420l163 303zM510 996v-101h-101v101h101zM290 996v-101h-101v101h101z" />
    <glyph glyph-name="fraction" unicode="&#x2044;" horiz-adv-x="511" 
d="M460 813l51 -37l-441 -789l-50 37z" />
    <glyph glyph-name="guilsinglleft" unicode="&#x2039;" horiz-adv-x="329" 
d="M143 344l136 -136l-47 -46l-182 182l182 182l47 -47z" />
    <glyph glyph-name="guilsinglright" unicode="&#x203a;" horiz-adv-x="329" 
d="M97 526l182 -182l-182 -182l-47 47l136 135l-136 136z" />
    <glyph glyph-name="fi" unicode="&#xfb01;" horiz-adv-x="762" 
d="M662 82l65 -82h-251l65 82v274l-52 55l173 149v-478zM580 785l112 -48l-108 -94l-305 130v-263h123v-66h-123v-362l65 -82h-251l65 82v362h-123v66h123v86c0 136 48 245 199 245c71 0 158 -28 223 -56z" />
    <glyph glyph-name="fl" unicode="&#xfb02;" horiz-adv-x="762" 
d="M662 82l65 -82h-251l65 82v579l-262 112v-263h123v-66h-123v-362l65 -82h-251l65 82v362h-123v66h123v86c0 136 48 245 199 245c71 0 158 -28 223 -56l82 -35v-668z" />
    <glyph glyph-name="daggerdbl" unicode="&#x2021;" horiz-adv-x="429" 
d="M409 208v-107l-172 35l30 -176h-106l30 176l-171 -35v107l171 -36l-31 142l31 146l-171 -36v107l171 -35l-30 176h106l-30 -176l172 35v-107l-172 36l31 -146l-31 -142z" />
    <glyph glyph-name="periodcentered" unicode="&#xb7;" horiz-adv-x="241" 
d="M181 510v-121h-121v121h121z" />
    <glyph glyph-name="quotesinglbase" unicode="&#x201a;" horiz-adv-x="258" 
d="M135 158l93 -76l-124 -214l-94 77z" />
    <glyph glyph-name="quotedblbase" unicode="&#x201e;" horiz-adv-x="478" 
d="M355 158l93 -76l-124 -214l-94 77zM135 158l93 -76l-124 -214l-94 77z" />
    <glyph glyph-name="perthousand" unicode="&#x2030;" horiz-adv-x="1198" 
d="M1148 197c0 -116 -72 -210 -160 -210c-89 0 -161 94 -161 210c0 117 72 210 161 210c88 0 160 -93 160 -210zM371 603c0 -116 -72 -210 -160 -210c-89 0 -161 94 -161 211c0 116 72 209 161 209c88 0 160 -93 160 -210zM603 813l51 -37l-441 -789l-50 37zM767 197
c0 -116 -72 -210 -160 -210c-89 0 -161 94 -161 210c0 117 72 210 161 210c88 0 160 -93 160 -210zM1076 149c0 100 -48 193 -161 195c-11 -31 -16 -67 -16 -102c0 -99 47 -189 161 -192c10 31 16 65 16 99zM299 555c0 100 -48 193 -161 195c-11 -31 -16 -67 -16 -102
c0 -99 47 -189 161 -192c10 31 16 65 16 99zM695 149c0 100 -48 193 -161 195c-11 -31 -16 -67 -16 -102c0 -99 47 -189 161 -192c10 31 16 65 16 99z" />
    <glyph glyph-name="Acircumflex" unicode="&#xc2;" horiz-adv-x="762" 
d="M687 82l65 -82h-254l65 82l-60 152h-295l-64 -152l65 -82h-199l65 82l307 738zM237 303h238l-116 291zM382 1022l148 -82l-30 -55l-118 65l-118 -65l-30 55z" />
    <glyph glyph-name="Ecircumflex" unicode="&#xca;" horiz-adv-x="558" 
d="M498 134v-134h-458l65 82v636l-65 82h458v-133l-272 94v-314h203v-124l-203 85v-369zM279 1023l148 -82l-30 -55l-118 65l-118 -65l-30 55z" />
    <glyph glyph-name="Aacute" unicode="&#xc1;" horiz-adv-x="762" 
d="M687 82l65 -82h-254l65 82l-60 152h-295l-64 -152l65 -82h-199l65 82l307 738zM237 303h238l-116 291zM470 1055l27 -57l-238 -111l-26 57z" />
    <glyph glyph-name="Edieresis" unicode="&#xcb;" horiz-adv-x="558" 
d="M498 134v-134h-458l65 82v636l-65 82h458v-133l-272 94v-314h203v-124l-203 85v-369zM431 996v-101h-101v101h101zM211 996v-101h-101v101h101z" />
    <glyph glyph-name="Egrave" unicode="&#xc8;" horiz-adv-x="558" 
d="M498 134v-134h-458l65 82v636l-65 82h458v-133l-272 94v-314h203v-124l-203 85v-369zM160 1053l237 -111l-26 -57l-238 111z" />
    <glyph glyph-name="Iacute" unicode="&#xcd;" horiz-adv-x="331" 
d="M226 82l65 -82h-251l65 82v636l-65 82h251l-65 -82v-636zM257 1055l27 -57l-238 -111l-26 57z" />
    <glyph glyph-name="Icircumflex" unicode="&#xce;" horiz-adv-x="331" 
d="M226 82l65 -82h-251l65 82v636l-65 82h251l-65 -82v-636zM165 1023l148 -82l-30 -55l-118 65l-118 -65l-30 55z" />
    <glyph glyph-name="Idieresis" unicode="&#xcf;" horiz-adv-x="331" 
d="M225 82l65 -82h-251l65 82v636l-65 82h251l-65 -82v-636zM325 996v-101h-101v101h101zM105 996v-101h-101v101h101z" />
    <glyph glyph-name="Igrave" unicode="&#xcc;" horiz-adv-x="331" 
d="M225 82l65 -82h-251l65 82v636l-65 82h251l-65 -82v-636zM55 1053l237 -111l-26 -57l-238 111z" />
    <glyph glyph-name="Oacute" unicode="&#xd3;" horiz-adv-x="787" 
d="M732 400c0 -228 -151 -413 -339 -413c-186 0 -338 185 -338 413s152 413 338 413c188 0 339 -185 339 -413zM612 347c0 190 -87 371 -318 371c-23 0 -44 -2 -70 -6c-33 -76 -52 -169 -52 -259c0 -190 87 -371 318 -371c23 0 44 2 70 6c33 76 52 169 52 259zM501 1055
l27 -57l-238 -111l-26 57z" />
    <glyph glyph-name="Ocircumflex" unicode="&#xd4;" horiz-adv-x="787" 
d="M732 400c0 -228 -151 -413 -339 -413c-186 0 -338 185 -338 413s152 413 338 413c188 0 339 -185 339 -413zM612 347c0 190 -87 371 -318 371c-23 0 -44 -2 -70 -6c-33 -76 -52 -169 -52 -259c0 -190 87 -371 318 -371c23 0 44 2 70 6c33 76 52 169 52 259zM394 1022
l148 -82l-30 -55l-118 65l-118 -65l-30 55z" />
    <glyph glyph-name="Ograve" unicode="&#xd2;" horiz-adv-x="787" 
d="M732 400c0 -228 -151 -413 -339 -413c-186 0 -338 185 -338 413s152 413 338 413c188 0 339 -185 339 -413zM612 347c0 190 -87 371 -318 371c-23 0 -44 -2 -70 -6c-33 -76 -52 -169 -52 -259c0 -190 87 -371 318 -371c23 0 44 2 70 6c33 76 52 169 52 259zM306 1053
l237 -111l-26 -57l-238 111z" />
    <glyph glyph-name="Uacute" unicode="&#xda;" horiz-adv-x="753" 
d="M467 800h251l-65 -82v-438c0 -161 -125 -293 -279 -293s-279 132 -279 294v437l-65 82h251l-65 -82v-375c0 -167 127 -269 255 -269c20 0 41 3 61 8v636zM470 1055l27 -57l-238 -111l-26 57z" />
    <glyph glyph-name="Ucircumflex" unicode="&#xdb;" horiz-adv-x="753" 
d="M467 800h251l-65 -82v-438c0 -161 -125 -293 -279 -293s-279 132 -279 294v437l-65 82h251l-65 -82v-375c0 -167 127 -269 255 -269c20 0 41 3 61 8v636zM378 1023l148 -82l-30 -55l-118 65l-118 -65l-30 55z" />
    <glyph glyph-name="Ugrave" unicode="&#xd9;" horiz-adv-x="753" 
d="M467 800h251l-65 -82v-438c0 -161 -125 -293 -279 -293s-279 132 -279 294v437l-65 82h251l-65 -82v-375c0 -167 127 -269 255 -269c20 0 41 3 61 8v636zM262 1053l237 -111l-26 -57l-238 111z" />
    <glyph glyph-name="dotlessi" unicode="&#x131;" horiz-adv-x="321" 
d="M221 82l65 -82h-251l65 82v274l-52 55l173 149v-478z" />
    <glyph glyph-name="circumflex" unicode="&#x2c6;" 
d="M275 837l148 -82l-30 -55l-118 65l-118 -65l-30 55z" />
    <glyph glyph-name="tilde" unicode="&#x2dc;" 
d="M400 800l45 -40c-29 -30 -55 -63 -101 -63c-57 0 -93 56 -124 56c-19 0 -43 -34 -55 -47l-45 40c28 31 53 67 100 67c56 0 90 -56 124 -56c20 0 43 29 56 43z" />
    <glyph glyph-name="macron" unicode="&#xaf;" 
d="M417 800v-64h-291v64h291z" />
    <glyph glyph-name="breve" unicode="&#x2d8;" 
d="M386 813l39 -49c-47 -33 -86 -64 -149 -64s-102 31 -149 64l39 49c32 -24 68 -51 110 -51c43 0 78 27 110 51z" />
    <glyph glyph-name="dotaccent" unicode="&#x2d9;" 
d="M338 800v-121h-121v121h121z" />
    <glyph glyph-name="ring" unicode="&#x2da;" horiz-adv-x="563" 
d="M394 722c0 -64 -51 -115 -115 -115c-63 0 -115 51 -115 115c0 63 52 115 115 115c64 0 115 -52 115 -115zM354 722c0 41 -33 75 -75 75c-41 0 -75 -33 -75 -75s34 -75 75 -75c42 0 75 33 75 75z" />
    <glyph glyph-name="cedilla" unicode="&#xb8;" horiz-adv-x="503" 
d="M372 -80l-87 -74c-57 22 -130 32 -183 34l154 131h74l-63 -54c46 -8 78 -20 105 -37z" />
    <glyph glyph-name="hungarumlaut" unicode="&#x2dd;" 
d="M406 840l43 -48l-98 -88l-43 48zM200 840l42 -48l-98 -88l-43 48z" />
    <glyph glyph-name="ogonek" unicode="&#x2db;" horiz-adv-x="516" 
d="M300 11l153 -131c-53 -2 -125 -12 -183 -34l-86 74c27 17 59 29 105 37l-63 54h74z" />
    <glyph glyph-name="caron" unicode="&#x2c7;" 
d="M393 837l30 -55l-148 -82l-148 82l30 55l118 -65z" />
    <glyph glyph-name="Eth" unicode="&#xd0;" horiz-adv-x="719" 
d="M664 388c0 -196 -111 -388 -343 -388h-281l65 82v197l-94 -55v134l94 55v305l-65 82h274c229 0 350 -208 350 -412zM546 350c0 185 -95 342 -320 388v-255l94 54v-134l-94 -54v-210l259 -55c54 84 61 168 61 266z" />
    <glyph glyph-name="Euro" unicode="&#x20ac;" horiz-adv-x="783" 
d="M753 715l-104 -87c-63 63 -141 89 -225 89c-26 0 -52 -2 -77 -6c-30 -72 -40 -145 -43 -216h238v-66h-239c2 -26 4 -51 9 -75h230v-66h-212c48 -130 161 -226 356 -247c-49 -34 -106 -53 -167 -53c-176 0 -286 137 -321 300h-158v66h147c-1 18 -2 35 -2 53v22h-145v66
h152c27 170 133 317 334 317c87 0 166 -36 227 -97z" />
    </font>
</defs>
</svg>
